<svg width="14" height="15" viewBox="0 0 14 15" fill="none" xmlns="http://www.w3.org/2000/svg">
<mask id="mask0_57_100" style="mask-type:alpha" maskUnits="userSpaceOnUse" x="0" y="0" width="14" height="15">
<rect y="0.5" width="14" height="14" fill="#D9D9D9"/>
</mask>
<g mask="url(#mask0_57_100)">
<path d="M3.09169 13.0417C2.80002 13.0417 2.5521 12.9396 2.34794 12.7354C2.14377 12.5313 2.04169 12.2834 2.04169 11.9917V4.17502C2.04169 3.88335 2.14377 3.63544 2.34794 3.43127C2.5521 3.2271 2.80002 3.12502 3.09169 3.12502H3.90835V1.88544H4.79794V3.12502H9.21669V1.88544H10.0917V3.12502H10.9084C11.2 3.12502 11.4479 3.2271 11.6521 3.43127C11.8563 3.63544 11.9584 3.88335 11.9584 4.17502V11.9917C11.9584 12.2834 11.8563 12.5313 11.6521 12.7354C11.4479 12.9396 11.2 13.0417 10.9084 13.0417H3.09169ZM3.09169 12.1667H10.9084C10.9472 12.1667 10.9861 12.1472 11.025 12.1084C11.0639 12.0695 11.0834 12.0306 11.0834 11.9917V6.50835H2.91669V11.9917C2.91669 12.0306 2.93613 12.0695 2.97502 12.1084C3.01391 12.1472 3.0528 12.1667 3.09169 12.1667ZM2.91669 5.63335H11.0834V4.17502C11.0834 4.13613 11.0639 4.09724 11.025 4.05835C10.9861 4.01946 10.9472 4.00002 10.9084 4.00002H3.09169C3.0528 4.00002 3.01391 4.01946 2.97502 4.05835C2.93613 4.09724 2.91669 4.13613 2.91669 4.17502V5.63335Z" fill="#B1B3C5"/>
</g>
</svg>
