<svg width="26" height="26" viewBox="0 0 26 26" fill="none" xmlns="http://www.w3.org/2000/svg">
<path d="M5.58126 13.9779H16.9118C17.4519 13.9779 17.8898 13.54 17.8898 12.9999C17.8898 12.4598 17.4519 12.0219 16.9118 12.0219H5.58126L6.84572 10.7575C7.22765 10.3756 7.22765 9.75639 6.84572 9.37446C6.46391 8.99253 5.84466 8.99253 5.46266 9.37446L2.52893 12.3082C2.50624 12.3308 2.48485 12.3545 2.46451 12.3793C2.45956 12.3853 2.45532 12.3918 2.45049 12.398C2.43556 12.417 2.42089 12.4361 2.40746 12.4561C2.40355 12.462 2.40035 12.4682 2.39651 12.4741C2.38308 12.4951 2.36991 12.5163 2.35804 12.5384C2.35576 12.5428 2.35387 12.5474 2.35159 12.5518C2.33926 12.5757 2.3274 12.6 2.31703 12.625C2.31573 12.6281 2.31481 12.6313 2.31358 12.6345C2.30295 12.6608 2.2931 12.6875 2.28476 12.7149C2.28365 12.7184 2.28306 12.7219 2.28208 12.7255C2.2742 12.7524 2.26696 12.7796 2.26142 12.8074C2.25979 12.8157 2.25907 12.8242 2.25757 12.8326C2.25353 12.8557 2.24949 12.8788 2.2472 12.9023C2.24388 12.9346 2.24225 12.9672 2.24225 12.9999C2.24225 13.0326 2.24388 13.0652 2.2472 13.0976C2.24949 13.1214 2.25366 13.1447 2.25764 13.168C2.25907 13.1761 2.25979 13.1843 2.26142 13.1924C2.26702 13.2205 2.2742 13.2479 2.28215 13.2751C2.28313 13.2783 2.28371 13.2817 2.28469 13.2849C2.2931 13.3124 2.30295 13.3394 2.31371 13.366C2.31488 13.3688 2.31573 13.3719 2.31697 13.3748C2.3274 13.4 2.33933 13.4244 2.35178 13.4485C2.35393 13.4527 2.35576 13.4571 2.35798 13.4614C2.36997 13.4836 2.38321 13.505 2.39683 13.5262C2.40049 13.5319 2.40361 13.538 2.4074 13.5436C2.42089 13.5637 2.43569 13.5829 2.45056 13.6019C2.45532 13.6081 2.45956 13.6145 2.46444 13.6205C2.48485 13.6452 2.50624 13.669 2.52886 13.6916L5.4626 16.6253C5.65356 16.8163 5.90386 16.9118 6.15416 16.9118C6.40445 16.9118 6.65475 16.8163 6.84565 16.6253C7.22758 16.2434 7.22758 15.6242 6.84565 15.2423L5.58126 13.9779Z" fill="#CC0707"/>
<path d="M15.7578 5C13.0883 5 10.6047 6.32431 9.1139 8.54243C8.81269 8.99067 8.93187 9.59832 9.38011 9.8996C9.82841 10.2008 10.436 10.0818 10.7373 9.63339C11.864 7.95682 13.7408 6.95589 15.7578 6.95589C19.0904 6.95595 21.8018 9.66723 21.8018 12.9999C21.8018 16.3326 19.0904 19.0439 15.7578 19.0439C13.7468 19.0439 11.873 18.0475 10.7455 16.3785C10.443 15.9309 9.83526 15.8133 9.38761 16.1156C8.94008 16.418 8.82234 17.0259 9.12473 17.4734C10.6165 19.6816 13.0962 20.9998 15.7578 20.9998C20.169 20.9998 23.7577 17.4111 23.7577 12.9999C23.7577 8.58872 20.169 5 15.7578 5Z" fill="#CC0707"/>
</svg>
