<svg width="6" height="6" viewBox="0 0 6 6" fill="none" xmlns="http://www.w3.org/2000/svg">
<path d="M2.14286 0.7976C2.14286 0.3572 2.52643 0 3 0C3.47357 0 3.85714 0.3572 3.85714 0.7976H5.57143C5.808 0.7976 6 0.976 6 1.1964C6 1.4164 5.808 1.5952 5.57143 1.5952H0.428571C0.192 1.5952 0 1.4164 0 1.1964C0 0.9764 0.192 0.7976 0.428571 0.7976H2.14286ZM0.857143 5.0032V2.4H1.71429V5.0032C1.71451 5.0561 1.73719 5.10677 1.77735 5.1441C1.81751 5.18144 1.87189 5.2024 1.92857 5.2024H2.57143V2.4H3.42857V5.2024H4.07143C4.12811 5.2024 4.18249 5.18144 4.22265 5.1441C4.26281 5.10677 4.28549 5.0561 4.28571 5.0032V2.4H5.14286V5.0032C5.14263 5.13431 5.11474 5.2641 5.06077 5.38515C5.00681 5.5062 4.92782 5.61615 4.82833 5.70871C4.72884 5.80127 4.61079 5.87463 4.48092 5.92461C4.35105 5.97459 4.21191 6.00021 4.07143 6H1.92857C1.33714 6 0.857143 5.5536 0.857143 5.0032Z" fill="white"/>
</svg>
